<svg xmlns="http://www.w3.org/2000/svg" xml:space="preserve" style="border: .0px solid red" width="28.6" height="28.6">
<g clip-path="url(#b)" transform="matrix(1.33333 0 0 -1.33333 -3.5 29.65)">
<path d="M0 0c.036-.038.132-.225.213-.417.082-.191.194-.424.249-.515.185-.306.522-.572.915-.718.173-.065.197-.067.587-.067.381.002.419.005.587.064.258.094.491.242.682.436.18.182.314.419.515.91.127.307.19.372.372.372.1 0 .186-.024.354-.094.12-.052.501-.208.843-.349.343-.142.666-.276.719-.3l.234-.098c.312-.125.352-.287.173-.714a7.644 7.644 0 0 1-.182-.481 1.084 1.084 0 0 1-.074-.491 1.55 1.55 0 0 1 .347-1.018c.151-.194.239-.283.429-.426a1.597 1.597 0 0 1 1.061-.331c.328.01.388.026.862.23.232.101.314.125.426.127.23.002.247-.022.604-.905.129-.317.388-.937.519-1.248.063-.146.072-.194.063-.312-.015-.182-.065-.222-.479-.39-.431-.175-.597-.271-.791-.453-.39-.369-.582-.919-.522-1.494.029-.278.106-.506.249-.74.213-.352.451-.537.985-.764.474-.204.488-.211.527-.285.057-.113.045-.273-.034-.453-.055-.129-.462-1.114-.618-1.49a9.49 9.49 0 0 0-.16-.383c-.125-.292-.273-.35-.573-.225-.081.033-.158.065-.172.067-.012.005-.077.031-.144.06-.34.153-.462.182-.79.182-.266 0-.336-.01-.479-.058a2.01 2.01 0 0 1-.927-.644.296.296 0 0 1-.067-.091.803.803 0 0 0-.067-.112 1.714 1.714 0 0 1-.211-.52 1.378 1.378 0 0 1-.026-.431c.011-.3.052-.448.253-.913.108-.251.125-.402.065-.522-.043-.081-.098-.12-.302-.201a91.89 91.89 0 0 1-.802-.328l-.419-.178c-.879-.366-.858-.359-1.018-.292-.091.039-.125.096-.261.434-.264.656-.52.965-.975 1.181-.266.126-.426.158-.8.16-.369 0-.493-.026-.778-.16-.46-.221-.683-.499-1.002-1.263-.124-.304-.177-.361-.342-.378-.089-.007-.165.014-.477.146l-1.693.702a.67.67 0 0 0-.223.141c-.107.125-.098.232.046.58.223.527.249.627.251.951.003.304-.031.474-.143.718-.091.201-.13.256-.305.453-.33.373-.783.603-1.238.63a1.507 1.507 0 0 1-.527-.051 7.755 7.755 0 0 1-.452-.172c-.642-.259-.652-.252-.982.577-.082.204-.477 1.152-.585 1.401a.77.77 0 0 0-.077.316c0 .209.027.23.573.455.129.053.311.142.402.192.417.242.731.721.812 1.246.034.205.015.548-.038.749-.034.13-.18.462-.232.527-.01.012-.06.074-.108.137-.197.242-.419.39-.858.57-.416.17-.486.208-.527.285-.055.107-.043.246.034.426.038.091.153.362.254.606l.227.551c.027.06.118.28.204.491.089.211.182.407.208.438a.373.373 0 0 0 .3.086c.036-.007.222-.076.414-.153.419-.165.486-.189.625-.206.132-.014.472-.014.498 0 .01.007.053.019.094.026.412.072.862.393 1.152.822.191.285.309.726.28 1.044-.024.252-.067.398-.29.937-.105.254-.108.4-.009.505.067.072.043.062.764.355l.359.148c.898.388 1.092.46 1.238.462C-.079.065-.055.057 0 0m-7.844 2.218c-.431-.072-.805-.438-.898-.877-.053-.244-.053-19.41 0-19.654.067-.318.299-.625.584-.771.278-.139-.402-.132 10.11-.132 10.61 0 9.839-.009 10.131.146.173.091.379.302.467.474.139.278.132-.402.132 10.11 0 8.304-.005 9.688-.036 9.827a1.132 1.132 0 0 1-.922.877c-.199.033-19.374.031-19.568 0" style="fill:#8854d0;fill-opacity:1;fill-rule:nonzero;stroke:none" transform="translate(11.406 19.986)"/>
<path d="M0 0a5.445 5.445 0 0 1-.836-.134 4.555 4.555 0 0 1-3.317-3.329 3.883 3.883 0 0 1-.129-1.109c.002-.762.148-1.38.488-2.05A4.537 4.537 0 0 1-.822-8.989a3.842 3.842 0 0 1 1.097-.129c.453 0 .681.026 1.097.129a4.57 4.57 0 0 1 3.421 3.758c.047.302.052.975.012 1.27C4.524-1.945 2.956-.345.963-.048.723-.012.165.017 0 0" style="fill:#8854d0;fill-opacity:1;fill-rule:nonzero;stroke:none" transform="translate(13.083 16.06)"/>
</g>
</svg>