<svg width="239" height="45" viewBox="0 0 239 45" fill="none" xmlns="http://www.w3.org/2000/svg">
<path d="M78.18 19.26H75.12V33H71.67V19.26H69.72V16.47H71.67V15.3C71.67 13.4 72.17 12.02 73.17 11.16C74.19 10.28 75.78 9.84 77.94 9.84V12.69C76.9 12.69 76.17 12.89 75.75 13.29C75.33 13.67 75.12 14.34 75.12 15.3V16.47H78.18V19.26ZM80.0709 24.66C80.0709 23 80.4109 21.53 81.0909 20.25C81.7909 18.97 82.7309 17.98 83.9109 17.28C85.1109 16.56 86.4309 16.2 87.8709 16.2C89.1709 16.2 90.3009 16.46 91.2609 16.98C92.2409 17.48 93.0209 18.11 93.6009 18.87V16.47H97.0509V33H93.6009V30.54C93.0209 31.32 92.2309 31.97 91.2309 32.49C90.2309 33.01 89.0909 33.27 87.8109 33.27C86.3909 33.27 85.0909 32.91 83.9109 32.19C82.7309 31.45 81.7909 30.43 81.0909 29.13C80.4109 27.81 80.0709 26.32 80.0709 24.66ZM93.6009 24.72C93.6009 23.58 93.3609 22.59 92.8809 21.75C92.4209 20.91 91.8109 20.27 91.0509 19.83C90.2909 19.39 89.4709 19.17 88.5909 19.17C87.7109 19.17 86.8909 19.39 86.1309 19.83C85.3709 20.25 84.7509 20.88 84.2709 21.72C83.8109 22.54 83.5809 23.52 83.5809 24.66C83.5809 25.8 83.8109 26.8 84.2709 27.66C84.7509 28.52 85.3709 29.18 86.1309 29.64C86.9109 30.08 87.7309 30.3 88.5909 30.3C89.4709 30.3 90.2909 30.08 91.0509 29.64C91.8109 29.2 92.4209 28.56 92.8809 27.72C93.3609 26.86 93.6009 25.86 93.6009 24.72ZM107.543 33.27C106.243 33.27 105.073 33.04 104.033 32.58C103.013 32.1 102.203 31.46 101.603 30.66C101.003 29.84 100.683 28.93 100.643 27.93H104.183C104.243 28.63 104.573 29.22 105.173 29.7C105.793 30.16 106.563 30.39 107.483 30.39C108.443 30.39 109.183 30.21 109.703 29.85C110.243 29.47 110.513 28.99 110.513 28.41C110.513 27.79 110.213 27.33 109.613 27.03C109.033 26.73 108.103 26.4 106.823 26.04C105.583 25.7 104.573 25.37 103.793 25.05C103.013 24.73 102.333 24.24 101.753 23.58C101.193 22.92 100.913 22.05 100.913 20.97C100.913 20.09 101.173 19.29 101.693 18.57C102.213 17.83 102.953 17.25 103.913 16.83C104.893 16.41 106.013 16.2 107.273 16.2C109.153 16.2 110.663 16.68 111.803 17.64C112.963 18.58 113.583 19.87 113.663 21.51H110.243C110.183 20.77 109.883 20.18 109.343 19.74C108.803 19.3 108.073 19.08 107.153 19.08C106.253 19.08 105.563 19.25 105.083 19.59C104.603 19.93 104.363 20.38 104.363 20.94C104.363 21.38 104.523 21.75 104.843 22.05C105.163 22.35 105.553 22.59 106.013 22.77C106.473 22.93 107.153 23.14 108.053 23.4C109.253 23.72 110.233 24.05 110.993 24.39C111.773 24.71 112.443 25.19 113.003 25.83C113.563 26.47 113.853 27.32 113.873 28.38C113.873 29.32 113.613 30.16 113.093 30.9C112.573 31.64 111.833 32.22 110.873 32.64C109.933 33.06 108.823 33.27 107.543 33.27ZM121.558 19.26V28.41C121.558 29.03 121.698 29.48 121.978 29.76C122.278 30.02 122.778 30.15 123.478 30.15H125.578V33H122.878C121.338 33 120.158 32.64 119.338 31.92C118.518 31.2 118.108 30.03 118.108 28.41V19.26H116.158V16.47H118.108V12.36H121.558V16.47H125.578V19.26H121.558ZM137.07 16.2C138.37 16.2 139.53 16.47 140.55 17.01C141.59 17.55 142.4 18.35 142.98 19.41C143.56 20.47 143.85 21.75 143.85 23.25V33H140.46V23.76C140.46 22.28 140.09 21.15 139.35 20.37C138.61 19.57 137.6 19.17 136.32 19.17C135.04 19.17 134.02 19.57 133.26 20.37C132.52 21.15 132.15 22.28 132.15 23.76V33H128.73V16.47H132.15V18.36C132.71 17.68 133.42 17.15 134.28 16.77C135.16 16.39 136.09 16.2 137.07 16.2ZM155.383 33.27C153.823 33.27 152.413 32.92 151.153 32.22C149.893 31.5 148.903 30.5 148.183 29.22C147.463 27.92 147.103 26.42 147.103 24.72C147.103 23.04 147.473 21.55 148.213 20.25C148.953 18.95 149.963 17.95 151.243 17.25C152.523 16.55 153.953 16.2 155.533 16.2C157.113 16.2 158.543 16.55 159.823 17.25C161.103 17.95 162.113 18.95 162.853 20.25C163.593 21.55 163.963 23.04 163.963 24.72C163.963 26.4 163.583 27.89 162.823 29.19C162.063 30.49 161.023 31.5 159.703 32.22C158.403 32.92 156.963 33.27 155.383 33.27ZM155.383 30.3C156.263 30.3 157.083 30.09 157.843 29.67C158.623 29.25 159.253 28.62 159.733 27.78C160.213 26.94 160.453 25.92 160.453 24.72C160.453 23.52 160.223 22.51 159.763 21.69C159.303 20.85 158.693 20.22 157.933 19.8C157.173 19.38 156.353 19.17 155.473 19.17C154.593 19.17 153.773 19.38 153.013 19.8C152.273 20.22 151.683 20.85 151.243 21.69C150.803 22.51 150.583 23.52 150.583 24.72C150.583 26.5 151.033 27.88 151.933 28.86C152.853 29.82 154.003 30.3 155.383 30.3ZM166.204 24.66C166.204 23 166.544 21.53 167.224 20.25C167.924 18.97 168.864 17.98 170.044 17.28C171.244 16.56 172.574 16.2 174.034 16.2C175.114 16.2 176.174 16.44 177.214 16.92C178.274 17.38 179.114 18 179.734 18.78V10.8H183.184V33H179.734V30.51C179.174 31.31 178.394 31.97 177.394 32.49C176.414 33.01 175.284 33.27 174.004 33.27C172.564 33.27 171.244 32.91 170.044 32.19C168.864 31.45 167.924 30.43 167.224 29.13C166.544 27.81 166.204 26.32 166.204 24.66ZM179.734 24.72C179.734 23.58 179.494 22.59 179.014 21.75C178.554 20.91 177.944 20.27 177.184 19.83C176.424 19.39 175.604 19.17 174.724 19.17C173.844 19.17 173.024 19.39 172.264 19.83C171.504 20.25 170.884 20.88 170.404 21.72C169.944 22.54 169.714 23.52 169.714 24.66C169.714 25.8 169.944 26.8 170.404 27.66C170.884 28.52 171.504 29.18 172.264 29.64C173.044 30.08 173.864 30.3 174.724 30.3C175.604 30.3 176.424 30.08 177.184 29.64C177.944 29.2 178.554 28.56 179.014 27.72C179.494 26.86 179.734 25.86 179.734 24.72ZM202.826 24.33C202.826 24.95 202.786 25.51 202.706 26.01H190.076C190.176 27.33 190.666 28.39 191.546 29.19C192.426 29.99 193.506 30.39 194.786 30.39C196.626 30.39 197.926 29.62 198.686 28.08H202.376C201.876 29.6 200.966 30.85 199.646 31.83C198.346 32.79 196.726 33.27 194.786 33.27C193.206 33.27 191.786 32.92 190.526 32.22C189.286 31.5 188.306 30.5 187.586 29.22C186.886 27.92 186.536 26.42 186.536 24.72C186.536 23.02 186.876 21.53 187.556 20.25C188.256 18.95 189.226 17.95 190.466 17.25C191.726 16.55 193.166 16.2 194.786 16.2C196.346 16.2 197.736 16.54 198.956 17.22C200.176 17.9 201.126 18.86 201.806 20.1C202.486 21.32 202.826 22.73 202.826 24.33ZM199.256 23.25C199.236 21.99 198.786 20.98 197.906 20.22C197.026 19.46 195.936 19.08 194.636 19.08C193.456 19.08 192.446 19.46 191.606 20.22C190.766 20.96 190.266 21.97 190.106 23.25H199.256ZM207.571 33.21C206.951 33.21 206.431 33 206.011 32.58C205.591 32.16 205.381 31.64 205.381 31.02C205.381 30.4 205.591 29.88 206.011 29.46C206.431 29.04 206.951 28.83 207.571 28.83C208.171 28.83 208.681 29.04 209.101 29.46C209.521 29.88 209.731 30.4 209.731 31.02C209.731 31.64 209.521 32.16 209.101 32.58C208.681 33 208.171 33.21 207.571 33.21ZM215.168 14.28C214.548 14.28 214.028 14.07 213.608 13.65C213.188 13.23 212.978 12.71 212.978 12.09C212.978 11.47 213.188 10.95 213.608 10.53C214.028 10.11 214.548 9.9 215.168 9.9C215.768 9.9 216.278 10.11 216.698 10.53C217.118 10.95 217.328 11.47 217.328 12.09C217.328 12.71 217.118 13.23 216.698 13.65C216.278 14.07 215.768 14.28 215.168 14.28ZM216.848 16.47V33H213.428V16.47H216.848ZM228.508 33.27C226.948 33.27 225.538 32.92 224.278 32.22C223.018 31.5 222.028 30.5 221.308 29.22C220.588 27.92 220.228 26.42 220.228 24.72C220.228 23.04 220.598 21.55 221.338 20.25C222.078 18.95 223.088 17.95 224.368 17.25C225.648 16.55 227.078 16.2 228.658 16.2C230.238 16.2 231.668 16.55 232.948 17.25C234.228 17.95 235.238 18.95 235.978 20.25C236.718 21.55 237.088 23.04 237.088 24.72C237.088 26.4 236.708 27.89 235.948 29.19C235.188 30.49 234.148 31.5 232.828 32.22C231.528 32.92 230.088 33.27 228.508 33.27ZM228.508 30.3C229.388 30.3 230.208 30.09 230.968 29.67C231.748 29.25 232.378 28.62 232.858 27.78C233.338 26.94 233.578 25.92 233.578 24.72C233.578 23.52 233.348 22.51 232.888 21.69C232.428 20.85 231.818 20.22 231.058 19.8C230.298 19.38 229.478 19.17 228.598 19.17C227.718 19.17 226.898 19.38 226.138 19.8C225.398 20.22 224.808 20.85 224.368 21.69C223.928 22.51 223.708 23.52 223.708 24.72C223.708 26.5 224.158 27.88 225.058 28.86C225.978 29.82 227.128 30.3 228.508 30.3Z" fill="#528FE9"/>
<path d="M23.8603 8.04161L7.07458 13.0416C5.9695 13.3708 6.20699 15 7.36006 15H35.8171C35.938 15 36.0579 14.9781 36.171 14.9353L49.3853 9.93529C50.425 9.54189 50.143 8 49.0314 8H24.1458C24.0491 8 23.9529 8.01402 23.8603 8.04161Z" fill="#9FD8F3"/>
<path d="M23.3603 19.0416L6.57458 24.0416C5.4695 24.3708 5.70699 26 6.86006 26H35.3171C35.438 26 35.5579 25.9781 35.671 25.9353L48.8853 20.9353C49.925 20.5419 49.643 19 48.5314 19H23.6458C23.5491 19 23.4529 19.014 23.3603 19.0416Z" fill="#659DF2"/>
<path d="M23.3603 30.0416L6.57458 35.0416C5.4695 35.3708 5.70699 37 6.86006 37H35.3171C35.438 37 35.5579 36.9781 35.671 36.9353L48.8853 31.9353C49.925 31.5419 49.643 30 48.5314 30H23.6458C23.5491 30 23.4529 30.014 23.3603 30.0416Z" fill="#2D53DB"/>
</svg>
