<?xml version="1.0" encoding="UTF-8"?>
<svg width="384px" height="140px" viewBox="0 0 384 140" version="1.1" xmlns="http://www.w3.org/2000/svg" xmlns:xlink="http://www.w3.org/1999/xlink">
    <title>flux dark</title>
    <defs>
        <radialGradient cx="50%" cy="0%" fx="50%" fy="0%" r="253.846154%" gradientTransform="translate(0.500000,0.000000),scale(1.000000,0.393939),rotate(90.000000),translate(-0.500000,-0.000000)" id="radialGradient-1">
            <stop stop-color="#FE84FC" offset="0%"></stop>
            <stop stop-color="#2ED1FF" offset="100%"></stop>
        </radialGradient>
    </defs>
    <g id="logos" stroke="none" stroke-width="1" fill="none" fill-rule="evenodd">
        <g id="flux-dark">
            <g id="Flux-Logo-New" transform="translate(70.000000, 70.000000) rotate(90.000000) translate(-70.000000, -70.000000) ">
                <circle id="Oval" fill="#0F0E25" cx="70" cy="70" r="70"></circle>
                <rect id="Rectangle" fill="#FFFFFF" transform="translate(70.000000, 83.000000) rotate(90.000000) translate(-70.000000, -83.000000) " x="57" y="50" width="26" height="66" rx="13"></rect>
                <path d="M50,30 C57.1797017,30 63,35.8202983 63,43 L63,96 L63,96 L50,96 C42.8202983,96 37,90.1797017 37,83 L37,43 C37,35.8202983 42.8202983,30 50,30 Z" id="Rectangle" fill="#FFFFFF"></path>
                <path d="M63,44 L76,44 C83.1797017,44 89,49.8202983 89,57 L89,97 C89,104.179702 83.1797017,110 76,110 C68.8202983,110 63,104.179702 63,97 L63,44 L63,44 Z" id="Rectangle" fill="url(#radialGradient-1)"></path>
            </g>
            <path d="M213.20202,24 C221.951515,24 228.852525,25.4173669 236,27.092437 L236,116 L217.515151,116 L217.515151,40.8795518 C216.036364,40.7507003 214.557576,40.7507003 213.20202,40.7507003 C206.30101,40.7507003 201.741414,44.1008403 201.741414,51.5742297 L210.737374,51.5742297 L210.737374,70.1288515 L201.741414,70.1288515 L201.741414,116 L183.256566,116 L183.256566,70.1288515 L175,70.1288515 L175,51.5742297 L183.256566,51.5742297 C183.256566,33.535014 192.745455,24 213.20202,24 Z M291.9375,52 L311,52 L311,114.256809 L291.9375,114.256809 L291.9375,108.404669 C288.50625,113.011673 282.152083,116 273.764583,116 C260.929167,116 250,107.035019 250,90.2256809 L250,52 L269.0625,52 L269.0625,87.4863813 C269.0625,95.2062257 274.01875,98.8171206 280.11875,98.8171206 C287.108333,98.8171206 291.9375,94.8326848 291.9375,85.9922179 L291.9375,52 Z M384,115 L362.256604,115 L350.5,98.368 L338.743396,115 L317,115 L339.628302,82.996 L317.758491,52 L339.501887,52 L350.5,67.624 L361.498113,52 L383.241509,52 L361.371698,82.996 L384,115 Z" id="fux" fill="#0F0E25" fill-rule="nonzero"></path>
        </g>
    </g>
</svg>