<svg width="182" height="32" viewBox="0 0 182 32" fill="none" xmlns="http://www.w3.org/2000/svg">
<path d="M49.9391 12.7928C49.6403 12.2361 49.2079 11.8146 48.6418 11.5283C48.0915 11.2261 47.4389 11.075 46.6841 11.075C45.379 11.075 44.3333 11.5124 43.5471 12.3872C42.7609 13.2461 42.3678 14.3993 42.3678 15.8468C42.3678 17.3897 42.7766 18.5986 43.5943 19.4734C44.4277 20.3323 45.5677 20.7618 47.0143 20.7618C48.005 20.7618 48.8384 20.5073 49.5145 19.9983C50.2064 19.4893 50.7096 18.7576 51.0241 17.8033H45.9058V14.797H54.68V18.5906C54.3812 19.6086 53.8702 20.555 53.1469 21.4299C52.4393 22.3047 51.5351 23.0125 50.4344 23.5533C49.3337 24.0941 48.0915 24.3645 46.7077 24.3645C45.0724 24.3645 43.61 24.0067 42.3206 23.2909C41.0469 22.5592 40.0484 21.5492 39.3251 20.2608C38.6175 18.9724 38.2637 17.501 38.2637 15.8468C38.2637 14.1926 38.6175 12.7212 39.3251 11.4328C40.0484 10.1285 41.0469 9.1185 42.3206 8.40272C43.5943 7.67104 45.0488 7.30519 46.6841 7.30519C48.6654 7.30519 50.3322 7.79033 51.6845 8.76061C53.0525 9.73088 53.9567 11.075 54.397 12.7928H49.9391Z" fill="#3478F6"/>
<path d="M63.7554 10.7648V14.1528H69.1567V17.3022H63.7554V20.9765H69.8643V24.2452H59.7221V7.49607H69.8643V10.7648H63.7554Z" fill="#3478F6"/>
<path d="M87.202 7.49607V10.7648H82.8149V24.2452H78.7816V10.7648H74.3945V7.49607H87.202Z" fill="#3478F6"/>
<path d="M102.059 15.6559C103.018 15.8627 103.788 16.3478 104.37 17.1113C104.952 17.8589 105.243 18.7179 105.243 19.6881C105.243 21.0879 104.755 22.2013 103.78 23.0284C102.821 23.8396 101.477 24.2452 99.747 24.2452H92.0342V7.49607H99.4876C101.17 7.49607 102.483 7.88577 103.427 8.66517C104.386 9.44457 104.865 10.5023 104.865 11.8384C104.865 12.8246 104.606 13.6438 104.087 14.2959C103.584 14.9481 102.908 15.4014 102.059 15.6559ZM96.0675 14.2721H98.7092C99.3697 14.2721 99.8728 14.1289 100.219 13.8426C100.58 13.5404 100.761 13.103 100.761 12.5304C100.761 11.9577 100.58 11.5203 100.219 11.2181C99.8728 10.9159 99.3697 10.7648 98.7092 10.7648H96.0675V14.2721ZM99.0394 20.9527C99.7156 20.9527 100.234 20.8016 100.596 20.4993C100.974 20.1812 101.162 19.7279 101.162 19.1394C101.162 18.5508 100.966 18.0896 100.573 17.7555C100.195 17.4215 99.6684 17.2545 98.9923 17.2545H96.0675V20.9527H99.0394Z" fill="#3478F6"/>
<path d="M114.423 21.0958H119.707V24.2452H110.39V7.49607H114.423V21.0958Z" fill="#3478F6"/>
<path d="M132.269 24.4123C130.713 24.4123 129.282 24.0464 127.976 23.3147C126.687 22.5831 125.657 21.5651 124.887 20.2608C124.132 18.9405 123.754 17.4613 123.754 15.8229C123.754 14.1846 124.132 12.7133 124.887 11.409C125.657 10.1047 126.687 9.08668 127.976 8.355C129.282 7.62332 130.713 7.25748 132.269 7.25748C133.826 7.25748 135.249 7.62332 136.538 8.355C137.844 9.08668 138.866 10.1047 139.605 11.409C140.359 12.7133 140.737 14.1846 140.737 15.8229C140.737 17.4613 140.359 18.9405 139.605 20.2608C138.85 21.5651 137.828 22.5831 136.538 23.3147C135.249 24.0464 133.826 24.4123 132.269 24.4123ZM132.269 20.6902C133.59 20.6902 134.644 20.2448 135.43 19.3541C136.232 18.4634 136.633 17.2863 136.633 15.8229C136.633 14.3437 136.232 13.1666 135.43 12.2918C134.644 11.401 133.59 10.9557 132.269 10.9557C130.933 10.9557 129.863 11.3931 129.061 12.2679C128.275 13.1428 127.882 14.3278 127.882 15.8229C127.882 17.3022 128.275 18.4872 129.061 19.378C129.863 20.2528 130.933 20.6902 132.269 20.6902Z" fill="#3478F6"/>
<path d="M145.105 15.8468C145.105 14.1926 145.458 12.7212 146.166 11.4328C146.874 10.1285 147.856 9.1185 149.114 8.40272C150.388 7.67104 151.827 7.30519 153.431 7.30519C155.396 7.30519 157.079 7.8301 158.478 8.8799C159.878 9.92971 160.813 11.3613 161.285 13.1746H156.851C156.521 12.4747 156.049 11.9418 155.436 11.576C154.838 11.2102 154.154 11.0272 153.384 11.0272C152.141 11.0272 151.135 11.4647 150.365 12.3395C149.594 13.2143 149.209 14.3834 149.209 15.8468C149.209 17.3102 149.594 18.4793 150.365 19.3541C151.135 20.2289 152.141 20.6664 153.384 20.6664C154.154 20.6664 154.838 20.4834 155.436 20.1176C156.049 19.7518 156.521 19.2189 156.851 18.519H161.285C160.813 20.3323 159.878 21.7639 158.478 22.8137C157.079 23.8476 155.396 24.3645 153.431 24.3645C151.827 24.3645 150.388 24.0067 149.114 23.2909C147.856 22.5592 146.874 21.5492 146.166 20.2608C145.458 18.9724 145.105 17.501 145.105 15.8468Z" fill="#3478F6"/>
<path d="M176.163 24.2452L170.596 16.8489V24.2452H166.563V7.49607H170.596V14.8447L176.116 7.49607H180.857L174.441 15.7036L181.092 24.2452H176.163Z" fill="#3478F6"/>
<path d="M13.8541 15.8349V32L0 24.0824V7.91733L13.8541 15.8349Z" fill="#3478F6"/>
<path opacity="0.25" d="M13.8542 15.8349L27.7083 7.91733V24.0824L13.8542 32V15.8349Z" fill="#3478F6"/>
<path opacity="0.5" d="M13.8541 0L27.7081 7.91759L13.8541 15.8352L0 7.91759L13.8541 0Z" fill="#3478F6"/>
</svg>
