<svg width="109" height="18" viewBox="0 0 109 18" fill="none" xmlns="http://www.w3.org/2000/svg">
<path d="M24.381 0.744084C25.1871 11.6639 18.1686 16.8252 11.8768 17.3756C6.02717 17.8873 0.521012 14.2925 0.0379622 8.76937C-0.360503 4.20635 2.45933 2.26373 4.67483 2.07008C6.95352 1.87032 8.8684 3.44194 9.03451 5.34481C9.19451 7.1743 8.05313 8.007 7.25925 8.07631C6.63149 8.13134 5.84169 7.75016 5.77036 6.93173C5.70921 6.22847 5.97621 6.13267 5.91099 5.38558C5.79482 4.05551 4.63509 3.90059 4.00019 3.95563C3.2318 4.02289 1.83768 4.9198 2.03335 7.15392C2.23003 9.4074 4.39051 11.188 7.22256 10.9403C10.2788 10.6733 12.4067 8.2934 12.5667 4.95547C12.5652 4.77868 12.6025 4.60371 12.6757 4.44281L12.6767 4.43873C12.7097 4.36882 12.7482 4.30167 12.7919 4.23795C12.8571 4.1401 12.9407 4.03207 13.0487 3.91384C13.0497 3.91078 13.0497 3.91078 13.0518 3.91078C13.1302 3.82211 13.225 3.7263 13.332 3.62336C14.667 2.36361 19.4751 -0.607393 24.0223 0.333341C24.1184 0.353944 24.2053 0.405076 24.2699 0.479102C24.3346 0.553129 24.3735 0.646081 24.381 0.744084" fill="url(#paint0_linear_114_266)"/>
<path d="M35.6029 5.52505V16.3093C35.6029 16.3241 35.5969 16.3384 35.5864 16.3489C35.576 16.3594 35.5617 16.3653 35.5468 16.3653H33.2497C33.2349 16.3653 33.2205 16.3594 33.2101 16.3489C33.1996 16.3384 33.1936 16.3241 33.1936 16.3093V5.52505C33.1936 5.51168 33.199 5.49885 33.2084 5.48938C33.2179 5.47994 33.2308 5.47461 33.2441 5.47461H35.5524C35.5659 5.47461 35.5786 5.47994 35.5881 5.48938C35.5975 5.49885 35.6029 5.51168 35.6029 5.52505Z" fill="#191C1E"/>
<path d="M53.6243 1.64258C53.6125 1.64258 53.6011 1.64731 53.5927 1.65571C53.5843 1.66412 53.5796 1.67553 53.5796 1.68743V3.62118C53.5796 3.63455 53.5848 3.64739 53.5944 3.65685C53.6037 3.66631 53.6166 3.67163 53.6299 3.67163H58.2353V16.3223C58.2353 16.3372 58.2413 16.3514 58.2518 16.3619C58.2622 16.3724 58.2764 16.3784 58.2914 16.3784H60.6836C60.6986 16.3784 60.7128 16.3724 60.7233 16.3619C60.7337 16.3514 60.7397 16.3372 60.7397 16.3223V3.67163H64.9754C64.9916 3.67163 65.0073 3.66514 65.0189 3.65356C65.0305 3.642 65.0371 3.62633 65.0371 3.60996V1.68743C65.0371 1.67553 65.0322 1.66412 65.0238 1.65571C65.0154 1.64731 65.004 1.64258 64.9922 1.64258H53.6243Z" fill="#191C1E"/>
<path d="M54.4549 16.3064C54.4549 16.3227 54.4486 16.3384 54.437 16.35C54.4254 16.3615 54.4097 16.368 54.3934 16.368H52.1524C52.136 16.368 52.1203 16.3615 52.1087 16.35C52.0973 16.3384 52.0907 16.3227 52.0907 16.3064V10.0231C52.0885 9.71716 52.0642 9.41182 52.0178 9.10944C51.8609 8.02765 51.4575 7.299 50.0122 7.299H49.9505C49.5119 7.31507 49.0834 7.43618 48.7011 7.65213C48.2028 7.91435 47.7803 8.30039 47.4741 8.77314C47.5191 9.12257 47.5416 9.47455 47.5414 9.82689V16.4465C47.5414 16.4614 47.5354 16.4756 47.5249 16.4861C47.5145 16.4966 47.5003 16.5026 47.4853 16.5026H45.2779C45.2615 16.5026 45.2458 16.496 45.2344 16.4845C45.2228 16.4729 45.2162 16.4573 45.2162 16.4409V10.6677C45.2162 9.64193 45.2779 8.54333 44.7681 7.93238C44.5567 7.7036 44.2942 7.52801 44.0022 7.41988C43.71 7.31178 43.3966 7.2742 43.0872 7.31021C42.6574 7.32927 42.236 7.43608 41.849 7.62409C41.5867 7.73378 41.3474 7.89159 41.1431 8.08932C40.9017 8.31823 40.7241 8.60606 40.6276 8.92447V16.3064C40.6276 16.3227 40.6211 16.3384 40.6097 16.35C40.5981 16.3615 40.5824 16.368 40.5659 16.368H38.3249C38.3087 16.368 38.293 16.3615 38.2814 16.35C38.2698 16.3384 38.2634 16.3227 38.2634 16.3064V5.60065C38.2634 5.58578 38.2692 5.57153 38.2797 5.56102C38.2902 5.55051 38.3046 5.5446 38.3193 5.5446H39.2775C39.4642 5.54398 39.6463 5.60286 39.7974 5.71271C39.9484 5.82255 40.0608 5.97766 40.1178 6.15557C40.1627 6.31251 40.2186 6.44702 40.241 6.51428C41.1891 5.69013 42.4086 5.2468 43.6643 5.26996C44.1485 5.23623 44.6344 5.3063 45.0895 5.47545C45.5445 5.64459 45.9584 5.90894 46.3032 6.25084C46.4645 6.44347 46.6089 6.64977 46.7345 6.8674C47.2133 6.35872 47.7943 5.95735 48.4395 5.68972C49.0845 5.42211 49.779 5.29433 50.4771 5.31479C51.6648 5.31479 54.4271 5.71835 54.4271 9.46816L54.4549 16.3064Z" fill="#191C1E"/>
<path d="M87.3211 16.4401H84.8615C84.8497 16.4408 84.8379 16.4386 84.8273 16.4337C84.8166 16.4288 84.8071 16.4214 84.8 16.4121C84.2845 15.6946 83.1864 13.9795 83.0686 13.8506L83.0183 13.7665C82.6317 13.2564 81.7184 12.085 80.4971 11.8215L79.5726 12.78V16.3672C79.5726 16.3731 79.5714 16.379 79.5692 16.3844C79.567 16.3899 79.5636 16.3948 79.5595 16.399C79.5554 16.4031 79.5503 16.4064 79.5449 16.4087C79.5395 16.4109 79.5337 16.4121 79.5279 16.4121H77.242C77.2265 16.4107 77.2123 16.4036 77.202 16.3922C77.1915 16.3807 77.1859 16.3659 77.1859 16.3504V1.48574C77.1859 1.47087 77.1917 1.45662 77.2024 1.44611C77.2128 1.4356 77.227 1.42969 77.242 1.42969H79.5726C79.5845 1.42969 79.5959 1.43442 79.6043 1.44282C79.6128 1.45123 79.6174 1.46264 79.6174 1.47454V9.88216L84.0997 5.28599H84.1387H86.6992C86.772 5.28599 86.8056 5.28599 86.8337 5.33643C86.8617 5.38688 86.8337 5.43173 86.8337 5.48217L82.1163 10.2745C83.1641 10.8328 84.0647 11.6319 84.7439 12.6062L84.7944 12.6735C84.9512 12.8753 86.7105 15.3864 87.3771 16.3224C87.3927 16.3298 87.4048 16.3432 87.4106 16.3595C87.4162 16.3758 87.4153 16.3937 87.408 16.4093C87.4005 16.4249 87.3872 16.4369 87.371 16.4427C87.3547 16.4485 87.3368 16.4476 87.3211 16.4401Z" fill="#191C1E"/>
<path d="M35.8447 2.63499C35.8503 2.92189 35.7705 3.20395 35.6153 3.4453C35.4601 3.68665 35.2367 3.87634 34.9735 3.99027C34.7101 4.10419 34.419 4.13718 34.1369 4.08504C33.855 4.03289 33.5947 3.89798 33.3894 3.69746C33.1844 3.49694 33.0434 3.2399 32.9847 2.95901C32.926 2.67814 32.9522 2.38613 33.0598 2.12016C33.1675 1.85418 33.3519 1.62628 33.5893 1.46543C33.8269 1.30458 34.1068 1.21808 34.3938 1.2169C34.582 1.21467 34.769 1.24959 34.944 1.31967C35.1188 1.38974 35.2781 1.49358 35.4128 1.62525C35.5476 1.75694 35.6551 1.91388 35.7292 2.08713C35.8034 2.26038 35.8427 2.44656 35.8447 2.63499Z" fill="#191C1E"/>
<path d="M69.7961 5.04883C66.4962 5.04883 64.4513 7.24041 64.4513 10.7716C64.4513 14.3028 66.4962 16.4944 69.7961 16.4944C73.096 16.4944 75.1748 14.2972 75.1748 10.766C75.1748 7.23482 73.096 5.04883 69.7961 5.04883ZM71.9308 13.7311C71.6442 13.9951 71.3076 14.1991 70.941 14.331C70.5744 14.4629 70.1852 14.52 69.7961 14.499C67.2694 14.499 66.7484 12.4027 66.7484 10.6539C66.7484 8.2157 67.74 7.02741 69.7961 7.02741C71.8522 7.02741 72.8328 8.27735 72.8328 10.7548C72.844 12.1056 72.5359 13.1089 71.9308 13.7255V13.7311Z" fill="#191C1E"/>
<path d="M97.6545 13.069C97.604 13.0074 97.4974 13.069 97.4472 13.069L95.4694 13.3661C95.4357 13.3668 95.403 13.3772 95.3752 13.3961C95.3473 13.415 95.3254 13.4416 95.3125 13.4726C95.0972 13.8282 94.7984 14.1258 94.4419 14.3397C94.0855 14.5536 93.6825 14.6774 93.2674 14.7001C92.7286 14.7763 92.1792 14.7019 91.68 14.4853C91.1807 14.2687 90.7508 13.9182 90.4383 13.4726C90.0898 13.0229 89.8725 12.4856 89.8107 11.92V11.8808L95.5199 11.0961C95.8721 11.0551 96.2101 10.9324 96.5068 10.7378C96.8033 10.5432 97.0506 10.282 97.2286 9.97504C97.3941 9.65832 97.4827 9.30716 97.4875 8.94985C97.4924 8.59255 97.4133 8.2391 97.2567 7.91798C96.7251 6.76521 95.77 5.86179 94.5898 5.39568C93.7582 5.07866 92.8603 4.97667 91.9788 5.09914C91.0973 5.22161 90.261 5.56459 89.5474 6.09633C88.8942 6.61771 88.3678 7.28054 88.0077 8.03493C87.6478 8.7893 87.4635 9.61554 87.4687 10.4515C87.441 10.9949 87.4711 11.5398 87.5584 12.077C87.9563 14.375 89.6314 16.6955 92.5615 16.6955C96.0577 16.6955 97.3967 14.5432 97.6433 13.254C97.6767 13.2148 97.716 13.1139 97.6545 13.069ZM90.371 8.17582C90.6359 7.84627 90.9655 7.57438 91.3394 7.37677C91.7131 7.17919 92.1233 7.06009 92.5449 7.02677C92.9326 6.95067 93.3331 6.96902 93.7124 7.08021C94.0917 7.19142 94.4387 7.39224 94.7242 7.66576C94.9487 7.87707 95.1379 8.1231 95.2845 8.39441C95.3267 8.48181 95.3486 8.57761 95.3486 8.67466C95.3486 8.77172 95.3267 8.86752 95.2845 8.95492C95.2463 9.04466 95.1854 9.12287 95.1078 9.18185C95.0302 9.24084 94.9384 9.27852 94.8418 9.29122L89.6258 10.0199C89.7062 9.34597 89.9718 8.70756 90.3934 8.17582H90.371Z" fill="#191C1E"/>
<path d="M108.953 9.62892V16.3046C108.953 16.3209 108.947 16.3366 108.935 16.3482C108.924 16.3597 108.908 16.3662 108.892 16.3662H106.65C106.636 16.3662 106.621 16.3603 106.611 16.3498C106.6 16.3393 106.595 16.325 106.595 16.3102V10.7555C106.595 10.7555 106.595 9.8363 106.55 9.00114C106.541 8.72135 106.478 8.44596 106.363 8.19098C106.247 7.93599 106.082 7.70648 105.877 7.5158C105.666 7.34825 105.421 7.22722 105.159 7.16058C104.898 7.09394 104.625 7.08321 104.359 7.12905C103.3 7.26568 102.332 7.80079 101.653 8.62561V16.3046C101.653 16.3209 101.646 16.3366 101.635 16.3482C101.623 16.3597 101.608 16.3662 101.591 16.3662H99.3503C99.3338 16.3662 99.3183 16.3597 99.3067 16.3482C99.2951 16.3366 99.2886 16.3209 99.2886 16.3046V5.39707C99.2886 5.38072 99.2951 5.36503 99.3067 5.35347C99.3183 5.34191 99.3338 5.33542 99.3503 5.33542H101.227C101.244 5.33542 101.259 5.34191 101.271 5.35347C101.282 5.36503 101.289 5.38072 101.289 5.39707V6.46205C102.236 5.60322 103.457 5.10692 104.734 5.06076C105.81 4.9935 108.953 5.05515 108.953 9.62892Z" fill="#191C1E"/>
<defs>
<linearGradient id="paint0_linear_114_266" x1="23.7611" y1="0.635258" x2="7.93658" y2="23.0317" gradientUnits="userSpaceOnUse">
<stop stop-color="#11C4D1"/>
<stop offset="1" stop-color="#0062AD"/>
</linearGradient>
</defs>
</svg>
