<svg width="142" height="24" viewBox="0 0 142 24" fill="none" xmlns="http://www.w3.org/2000/svg">
<path fill-rule="evenodd" clip-rule="evenodd" d="M136.325 12.9814L134.255 7.25978H133.754L131.687 12.9814H136.325ZM141.009 19.8169H138.798L137.065 15.0273H130.947L129.217 19.8169H127.006L132.748 4H135.268L141.009 19.8169Z" fill="#FEFEFE"/>
<path fill-rule="evenodd" clip-rule="evenodd" d="M117.229 11.8882C118.821 11.8882 120.718 11.3859 120.718 8.99563C120.718 6.46178 118.533 6.08387 117.229 6.08387H112.561V11.8882H117.229ZM118.991 13.7756L122.693 19.8036H120.157L116.606 13.9907H112.561V19.8036H110.459V4H117.229C121.092 4 122.82 6.50929 122.82 8.99563C122.82 12.5602 119.988 13.5413 118.991 13.7756Z" fill="#FEFEFE"/>
<path fill-rule="evenodd" clip-rule="evenodd" d="M103.076 13.8007C103.076 13.9704 103.03 17.954 99.0118 17.954C95.2722 17.954 94.9557 14.7738 94.9477 13.8007V4H92.844V13.8007C92.844 16.6601 94.4598 20 99.0118 20C103.564 20 105.18 16.6601 105.18 13.8007V4H103.076V13.8007Z" fill="#FEFEFE"/>
<path fill-rule="evenodd" clip-rule="evenodd" d="M88.6587 4V6.10309H78.4V10.2436H87.5116V12.3216H78.4V19.8036H76.2969V4H88.6587Z" fill="#FEFEFE"/>
<path fill-rule="evenodd" clip-rule="evenodd" d="M67.6839 4V16.5598H67.2248L59.8021 4H57.0809V19.8036H59.184V7.64143H59.643L66.7289 19.8036H69.787V4H67.6839Z" fill="#FEFEFE"/>
<path fill-rule="evenodd" clip-rule="evenodd" d="M40 4V5.95096H44.6706V17.8531H40V19.8036H51.4437V17.8531H46.7736V5.95096H51.4437V4H40Z" fill="#FEFEFE"/>
<path fill-rule="evenodd" clip-rule="evenodd" d="M0.824427 0V3.65249L9.5491 2.75337H12.7693V8.66526L7.34685 10.3237L0 12.0954L1.09094 15.6664L8.1311 12.9605L12.7693 11.5431V21.2472H9.5491L0.824427 20.3476V24.0001H27.4675V20.3476L18.7428 21.2472H15.5227V11.5431L20.1376 12.9532L27.2016 15.6664L28.2919 12.0954L20.9649 10.3288L15.5227 8.66526V2.75337H18.7428L27.4675 3.65249V0H0.824427Z" fill="#FF5833"/>
</svg>
