<svg width="1080" height="1080" viewBox="0 0 1080 1080" fill="none" xmlns="http://www.w3.org/2000/svg">
<path d="M528 157.428C498.852 161.602 468.465 161.922 440 170.438C404.724 180.993 369.355 194.895 338 214.425C329.009 220.026 321.424 226.819 313 233.127C303.53 240.217 293.86 246.144 285 254.17C279.942 258.752 275.788 264.159 270.996 269C265.548 274.505 259.354 279.24 254.171 285C248.022 291.833 243.1 299.654 237.626 307C231.613 315.069 224.811 322.828 219.126 331.086C211.108 342.732 204.542 355.778 198.031 368.286C179.654 403.585 168.77 441.862 162.866 481C159.818 501.205 156.662 522.514 157.005 543C157.069 546.859 158.448 550.227 158.871 554C159.569 560.212 159.482 566.744 159.91 573C160.968 588.434 162.476 604.889 166.039 620C180.045 679.401 205.583 735.464 244.261 783C294.417 844.643 366.651 891.382 444 910.625C470.447 917.204 497.893 919.852 525 921.039C543.858 921.865 563.173 922.026 582 919.714C622.322 914.762 661.952 904.7 699 887.691C808.471 837.432 889.204 736.966 914.181 619C919.339 594.643 921.378 568.807 921.985 544C924.78 429.917 871.312 316.116 783 244.261C741.23 210.275 692.741 186.104 641 171.615C612.871 163.738 584.158 160.055 555.004 158.982C545.83 158.644 537.498 156.068 528 157.428Z" fill="white"/>
<path d="M509 333.428C495.357 335.382 482.712 337.835 470 343.336C460.427 347.479 450.976 352.809 443.039 359.616C433.118 368.124 426.641 378.639 420.68 390C402.639 424.383 401.607 463.233 397.831 501C395.651 522.806 397.005 545.178 397.961 567C399.841 609.945 400.086 654.564 419.753 694C425.594 705.712 432.235 716.878 442.015 725.826C457.303 739.815 479.552 749.021 500 751.711C512.333 753.333 524.603 752.711 537 753.015C547.606 753.275 558.351 755.094 569 753.711C583.182 751.868 597.895 747.619 611 741.999C637.578 730.602 654.621 708.29 666.778 683C669.612 677.105 673.757 671.029 675.53 664.714C677.377 658.139 677.151 650.738 678.321 644C683.765 612.652 683.427 580.695 682.039 549C681.656 540.252 682.997 531.707 683 523C683.021 467.563 683.924 401.662 638 362.3C628.706 354.334 619.02 348.172 608 343.059C599.58 339.152 590.996 337.764 582 335.88C576.858 334.803 572.338 333.068 567 333.004C548.225 332.779 527.583 330.767 509 333.428Z" fill="black"/>
<path d="M518 412.518C484.063 419.758 482.167 461.455 480.961 489C480.386 502.113 480 514.874 480 528C480 560.577 478.775 592.589 483.573 625C486.109 642.138 490.729 659.944 507 669.363C514.954 673.967 523.226 673.617 532 674.385C539.614 675.051 548.527 674.108 556 672.489C563.107 670.95 571.184 668.583 576.91 663.956C588.772 654.37 591.049 639.767 594.41 626C596.036 619.342 597.476 613.879 598.286 607C599.893 593.338 597.432 578.877 598.039 565C598.789 547.877 598 531.11 598 514C598 494.972 598.729 477.537 594.239 459C591.153 446.259 588.42 432.356 577.995 423.189C568.789 415.093 552.905 412.561 541 412.039C533.733 411.721 525.131 410.996 518 412.518Z" fill="white"/>
</svg>
