<svg id="Layer_1" data-name="Layer 1" xmlns="http://www.w3.org/2000/svg" xmlns:xlink="http://www.w3.org/1999/xlink" viewBox="0 0 83.5 83.4"><defs><style>.cls-1{fill:none;stroke-linecap:round;stroke-linejoin:round;stroke-width:2px;stroke:url(#linear-gradient);}.cls-2{fill:url(#linear-gradient-2);}.cls-3{fill:url(#linear-gradient-3);}.cls-4{fill:url(#linear-gradient-4);}</style><linearGradient id="linear-gradient" x1="71.26" y1="702.14" x2="12.11" y2="761.29" gradientTransform="translate(0 -690)" gradientUnits="userSpaceOnUse"><stop offset="0" stop-color="#ff159e"/><stop offset="1" stop-color="#856fff"/></linearGradient><linearGradient id="linear-gradient-2" x1="24.41" y1="716.7" x2="24.41" y2="747.3" gradientTransform="translate(0 -690)" gradientUnits="userSpaceOnUse"><stop offset="0" stop-color="#ff159e"/><stop offset="1" stop-color="#9f50c7"/></linearGradient><linearGradient id="linear-gradient-3" x1="41.04" y1="716.7" x2="41.04" y2="747.3" xlink:href="#linear-gradient-2"/><linearGradient id="linear-gradient-4" x1="58.95" y1="716.7" x2="58.95" y2="747.3" xlink:href="#linear-gradient-2"/></defs><path class="cls-1" d="M72.3,47.8H82.5v-12H72.3a30.37,30.37,0,0,0-4.7-11.4l7.2-7.2L66.4,8.7l-7.2,7.2a30.37,30.37,0,0,0-11.4-4.7V1h-12V11.2a30.37,30.37,0,0,0-11.4,4.7L17.2,8.7,8.7,17l7.2,7.2a30.37,30.37,0,0,0-4.7,11.4H1v12H11.2A30.37,30.37,0,0,0,15.9,59L8.7,66.2l8.5,8.5,7.2-7.2a30.37,30.37,0,0,0,11.4,4.7V82.4h12V72.2a30.37,30.37,0,0,0,11.4-4.7l7.2,7.2,8.5-8.5L67.7,59A30.17,30.17,0,0,0,72.3,47.8Z"/><path class="cls-2" d="M26.82,56.92a9.74,9.74,0,0,1-.38-3.68v-4.7c0-2.8-.89-3.81-3-3.81H21.75V57h-4.7V26.7h7.11c4.95,0,7,2.29,7,7V36.1c0,3-1,5.07-3.05,6.09,2.42,1,3.18,3.3,3.18,6.48v4.69A8.24,8.24,0,0,0,31.78,57h-5ZM21.75,31v9.27h1.77c1.78,0,2.8-.77,2.8-3.18V34.19c0-2.16-.77-3-2.42-3H21.75Z"/><path class="cls-3" d="M38.89,26.7V50.06c0,2.16.88,2.92,2.41,2.92s2.41-.76,2.41-2.92V26.7h4.44v23c0,4.83-2.41,7.62-7.11,7.62s-7.11-2.79-7.11-7.62v-23Z"/><path class="cls-4" d="M55.77,35V56.79H51.46V26.7h6l4.83,18v-18h4.19V56.92H61.61Z"/></svg>