<svg width="146" height="24" viewBox="0 0 146 24" fill="none" xmlns="http://www.w3.org/2000/svg">
<path d="M62.7429 5.99872L59.3403 18.182H56.4612L54.1753 9.50708L51.7848 18.182L48.9231 18.1994L45.6427 5.99872H48.2601L50.4063 15.4591L52.8841 5.99872H55.6062L57.9444 15.4067L60.108 5.99872H62.7429Z" fill="white"/>
<path d="M63.7098 13.3122C63.7098 12.3347 63.9017 11.4678 64.2856 10.7114C64.6811 9.95508 65.2104 9.37326 65.8735 8.96599C66.5482 8.55872 67.2985 8.35508 68.1244 8.35508C68.8457 8.35508 69.4738 8.50053 70.0089 8.79144C70.5557 9.08235 70.9919 9.4489 71.3176 9.89108V8.51217H73.778V18.182H71.3176V16.7682C71.0035 17.222 70.5673 17.6002 70.0089 17.9027C69.4622 18.1936 68.8282 18.3391 68.107 18.3391C67.2927 18.3391 66.5482 18.1296 65.8735 17.7107C65.2104 17.2918 64.6811 16.7042 64.2856 15.9478C63.9017 15.1798 63.7098 14.3013 63.7098 13.3122ZM71.3176 13.3471C71.3176 12.7536 71.2013 12.2474 70.9686 11.8285C70.736 11.398 70.4219 11.0722 70.0264 10.8511C69.6309 10.6184 69.2063 10.502 68.7526 10.502C68.2989 10.502 67.8801 10.6125 67.4963 10.8336C67.1124 11.0547 66.7983 11.3805 66.554 11.8111C66.3213 12.23 66.205 12.7304 66.205 13.3122C66.205 13.894 66.3213 14.406 66.554 14.8482C66.7983 15.2787 67.1124 15.6104 67.4963 15.8431C67.8918 16.0758 68.3106 16.1922 68.7526 16.1922C69.2063 16.1922 69.6309 16.0816 70.0264 15.8605C70.4219 15.6278 70.736 15.302 70.9686 14.8831C71.2013 14.4525 71.3176 13.9405 71.3176 13.3471Z" fill="white"/>
<path d="M79.0081 10.5194V15.1973C79.0081 15.5231 79.0837 15.7616 79.2349 15.9129C79.3978 16.0525 79.6653 16.1224 80.0376 16.1224H81.1718V18.182H79.6362C77.5772 18.182 76.5477 17.1813 76.5477 15.1798V10.5194H75.3961V8.51217H76.5477V6.1209H79.0081V8.51217H81.1718V10.5194H79.0081Z" fill="white"/>
<path d="M82.3006 13.3471C82.3006 12.3464 82.5042 11.4736 82.9114 10.7289C83.3185 9.97253 83.8827 9.39072 84.6039 8.98344C85.3251 8.56453 86.1511 8.35508 87.0817 8.35508C88.2799 8.35508 89.2687 8.65762 90.0481 9.26272C90.8391 9.85617 91.3684 10.694 91.6359 11.7762H89.0011C88.8615 11.3573 88.623 11.0314 88.2857 10.7987C87.96 10.5544 87.5528 10.4322 87.0643 10.4322C86.3663 10.4322 85.8137 10.6882 85.4066 11.2002C84.9994 11.7005 84.7959 12.4162 84.7959 13.3471C84.7959 14.2664 84.9994 14.982 85.4066 15.494C85.8137 15.9944 86.3663 16.2445 87.0643 16.2445C88.053 16.2445 88.6987 15.8024 89.0011 14.918H91.6359C91.3684 15.9653 90.8391 16.7973 90.0481 17.414C89.257 18.0307 88.2682 18.3391 87.0817 18.3391C86.1511 18.3391 85.3251 18.1354 84.6039 17.7282C83.8827 17.3093 83.3185 16.7274 82.9114 15.9827C82.5042 15.2264 82.3006 14.3478 82.3006 13.3471Z" fill="white"/>
<path d="M98.8697 8.37253C99.6026 8.37253 100.254 8.53544 100.824 8.86126C101.394 9.17544 101.836 9.64672 102.15 10.2751C102.476 10.8918 102.639 11.6365 102.639 12.5093V18.182H100.196V12.8409C100.196 12.0729 100.004 11.4853 99.62 11.078C99.2361 10.6591 98.7126 10.4496 98.0496 10.4496C97.3749 10.4496 96.8398 10.6591 96.4443 11.078C96.0604 11.4853 95.8684 12.0729 95.8684 12.8409V18.182H93.4256V5.26562H95.8684V9.71653C96.1825 9.29762 96.6013 8.97181 97.1248 8.73908C97.6483 8.49472 98.2299 8.37253 98.8697 8.37253Z" fill="white"/>
<path d="M109.219 5.99872C110.499 5.99872 111.622 6.2489 112.587 6.74926C113.564 7.24962 114.314 7.96526 114.838 8.89617C115.373 9.81544 115.641 10.886 115.641 12.1078C115.641 13.3296 115.373 14.4002 114.838 15.3194C114.314 16.2271 113.564 16.9311 112.587 17.4314C111.622 17.9318 110.499 18.182 109.219 18.182H104.962V5.99872H109.219ZM109.132 16.1049C110.412 16.1049 111.4 15.7558 112.098 15.0576C112.796 14.3594 113.145 13.3762 113.145 12.1078C113.145 10.8394 112.796 9.85035 112.098 9.14053C111.4 8.41908 110.412 8.05835 109.132 8.05835H107.405V16.1049H109.132Z" fill="white"/>
<path d="M116.841 13.3122C116.841 12.3347 117.033 11.4678 117.417 10.7114C117.812 9.95508 118.342 9.37326 119.005 8.96599C119.679 8.55872 120.43 8.35508 121.256 8.35508C121.977 8.35508 122.605 8.50053 123.14 8.79144C123.687 9.08235 124.123 9.4489 124.449 9.89108V8.51217H126.909V18.182H124.449V16.7682C124.135 17.222 123.699 17.6002 123.14 17.9027C122.593 18.1936 121.96 18.3391 121.238 18.3391C120.424 18.3391 119.679 18.1296 119.005 17.7107C118.342 17.2918 117.812 16.7042 117.417 15.9478C117.033 15.1798 116.841 14.3013 116.841 13.3122ZM124.449 13.3471C124.449 12.7536 124.333 12.2474 124.1 11.8285C123.867 11.398 123.553 11.0722 123.158 10.8511C122.762 10.6184 122.338 10.502 121.884 10.502C121.43 10.502 121.011 10.6125 120.628 10.8336C120.244 11.0547 119.93 11.3805 119.685 11.8111C119.453 12.23 119.336 12.7304 119.336 13.3122C119.336 13.894 119.453 14.406 119.685 14.8482C119.93 15.2787 120.244 15.6104 120.628 15.8431C121.023 16.0758 121.442 16.1922 121.884 16.1922C122.338 16.1922 122.762 16.0816 123.158 15.8605C123.553 15.6278 123.867 15.302 124.1 14.8831C124.333 14.4525 124.449 13.9405 124.449 13.3471Z" fill="white"/>
<path d="M132.139 10.5194V15.1973C132.139 15.5231 132.215 15.7616 132.366 15.9129C132.529 16.0525 132.797 16.1224 133.169 16.1224H134.303V18.182H132.768C130.709 18.182 129.679 17.1813 129.679 15.1798V10.5194H128.527V8.51217H129.679V6.1209H132.139V8.51217H134.303V10.5194H132.139Z" fill="white"/>
<path d="M135.432 13.3122C135.432 12.3347 135.624 11.4678 136.008 10.7114C136.403 9.95508 136.933 9.37326 137.596 8.96599C138.27 8.55872 139.021 8.35508 139.847 8.35508C140.568 8.35508 141.196 8.50053 141.731 8.79144C142.278 9.08235 142.714 9.4489 143.04 9.89108V8.51217H145.5V18.182H143.04V16.7682C142.726 17.222 142.289 17.6002 141.731 17.9027C141.184 18.1936 140.55 18.3391 139.829 18.3391C139.015 18.3391 138.27 18.1296 137.596 17.7107C136.933 17.2918 136.403 16.7042 136.008 15.9478C135.624 15.1798 135.432 14.3013 135.432 13.3122ZM143.04 13.3471C143.04 12.7536 142.923 12.2474 142.691 11.8285C142.458 11.398 142.144 11.0722 141.749 10.8511C141.353 10.6184 140.928 10.502 140.475 10.502C140.021 10.502 139.602 10.6125 139.218 10.8336C138.835 11.0547 138.52 11.3805 138.276 11.8111C138.043 12.23 137.927 12.7304 137.927 13.3122C137.927 13.894 138.043 14.406 138.276 14.8482C138.52 15.2787 138.835 15.6104 139.218 15.8431C139.614 16.0758 140.033 16.1922 140.475 16.1922C140.928 16.1922 141.353 16.0816 141.749 15.8605C142.144 15.6278 142.458 15.302 142.691 14.8831C142.923 14.4525 143.04 13.9405 143.04 13.3471Z" fill="white"/>
<path d="M13.0869 1.2619C16.3995 -0.702391 20.6537 0.4308 22.5891 3.79295L28.6692 14.3556C30.6045 17.7178 29.488 22.0357 26.1754 24L13.0869 1.2619Z" fill="url(#paint0_linear_0_1011)"/>
<path d="M0 1.2619C3.31259 -0.702391 7.56687 0.4308 9.50221 3.79295L15.5823 14.3556C17.5177 17.7178 16.4012 22.0357 13.0886 24L0 1.2619Z" fill="url(#paint1_linear_0_1011)"/>
<path d="M39.2606 0.915208C37.7147 0.0093509 35.8776 -0.236126 34.1534 0.232781C32.4292 0.701687 30.9592 1.84657 30.0667 3.41556C29.1742 4.98455 28.9323 6.84913 29.3943 8.59911C29.8563 10.3491 30.9843 11.8411 32.5302 12.747L39.2606 0.915208Z" fill="url(#paint2_linear_0_1011)"/>
<defs>
<linearGradient id="paint0_linear_0_1011" x1="-1.13819" y1="10.3695" x2="44.135" y2="12.4001" gradientUnits="userSpaceOnUse">
<stop offset="0.107712" stop-color="#131314"/>
<stop offset="0.265625" stop-color="#7B52F2"/>
<stop offset="0.7626" stop-color="#F25656"/>
<stop offset="0.944242" stop-color="#FFED48"/>
<stop offset="1" stop-color="#20FF37"/>
</linearGradient>
<linearGradient id="paint1_linear_0_1011" x1="-1.13819" y1="10.3695" x2="44.135" y2="12.4001" gradientUnits="userSpaceOnUse">
<stop offset="0.107712" stop-color="#131314"/>
<stop offset="0.265625" stop-color="#7B52F2"/>
<stop offset="0.7626" stop-color="#F25656"/>
<stop offset="0.944242" stop-color="#FFED48"/>
<stop offset="1" stop-color="#20FF37"/>
</linearGradient>
<linearGradient id="paint2_linear_0_1011" x1="-1.13819" y1="10.3695" x2="44.135" y2="12.4001" gradientUnits="userSpaceOnUse">
<stop offset="0.107712" stop-color="#131314"/>
<stop offset="0.265625" stop-color="#7B52F2"/>
<stop offset="0.7626" stop-color="#F25656"/>
<stop offset="0.944242" stop-color="#FFED48"/>
<stop offset="1" stop-color="#20FF37"/>
</linearGradient>
</defs>
</svg>
